<svg width="162" height="38" fill="none" xmlns="http://www.w3.org/2000/svg"><g clip-path="url(#a)"><mask id="b" style="mask-type:alpha" maskUnits="userSpaceOnUse" x="2" y="-1" width="35" height="39"><path d="M18.994 26.332c-1.365.167-2.017 2.22-2.54 3.28-.833 1.65-1.563 3.351-2.412 4.992-.344.657-1.228 2.806-2.206 2.684-1.863-.228-3.537-.57-5.03-1.009-1.365-.404-2.48-.86-3.347-1.368a.5.5 0 0 1-.25-.439V21.788c0-.192.104-.368.275-.447a.476.476 0 0 1 .472.018c1.185.754 2.67 1.377 4.472 1.877 1.914.535 4.017.833 6.309.903.901.035 1.742.018 2.506-.052a9.44 9.44 0 0 0 1.348-.21.499.499 0 0 0 .369-.492v-.78a.494.494 0 0 0-.533-.5 66.82 66.82 0 0 1-.72.052c-.49.035-.936.053-1.357.053-4.557 0-7.973-.851-10.248-2.562-2.283-1.693-3.424-4.175-3.424-7.447 0-2.745.978-4.885 2.48-7.078 1.013-1.456 2.12-2.877 3.51-3.983C9.382.58 10.386-.35 11.33.132c1.45.728 2.36 3 3.09 4.35.884 1.623 1.717 3.29 2.773 4.798.66.948 1.656 2.342 2.935 2.342 3.167 0 6.094-11.973 8.334-11.578 2.095.368 3.863.868 5.313 1.518.18.078.3.263.3.464v12.666c0 .202-.12.386-.3.465l-.111.044a.473.473 0 0 1-.421-.017c-1.107-.588-2.455-1.07-4.043-1.439-1.69-.395-3.536-.588-5.553-.588-.867 0-1.682.053-2.429.158-.49.07-.867.15-1.141.228a.507.507 0 0 0-.352.483v.71c0 .29.248.527.532.5.232-.017.489-.035.772-.061a31.713 31.713 0 0 1 2.034-.053c4.24 0 7.468.86 9.674 2.588 5.493 4.29 3.356 12.64-.962 16.885-1.296 1.272-3.87 3.877-5.544 1.982-1.297-1.465-2.017-3.508-2.876-5.245-.78-1.588-1.339-3.474-2.832-4.535-.404-.29-.884-.5-1.373-.491-.043.009-.104.017-.155.026Z" fill="#92CD00"/></mask><g mask="url(#b)"><path fill="#017A73" d="m-12.84 7.162 43.389-18.581 6.157 14.548-43.39 18.582z"/><path fill="#E61127" d="m-6.683 21.71 43.39-18.58 6.157 14.548-43.39 18.581z"/><path fill="#FFE016" d="m-.526 36.259 43.39-18.581 6.158 14.548-43.39 18.582z"/></g></g><path d="M40.455 11.061v-1.015h7.09v1.015h-2.972V19.5h-1.145v-8.439h-2.973Zm10.562 8.587c-.64 0-1.201-.153-1.685-.457a3.104 3.104 0 0 1-1.126-1.28c-.268-.547-.402-1.187-.402-1.92 0-.738.134-1.383.402-1.934.27-.55.646-.979 1.126-1.283.484-.305 1.045-.457 1.685-.457.64 0 1.2.152 1.68.457.484.305.86.732 1.127 1.283.271.551.407 1.196.407 1.934 0 .733-.136 1.373-.407 1.92a3.062 3.062 0 0 1-1.126 1.28c-.48.304-1.04.457-1.68.457Zm0-.979c.487 0 .887-.125 1.2-.374.315-.25.547-.577.698-.983.15-.407.226-.847.226-1.32 0-.475-.075-.916-.226-1.326-.151-.409-.383-.74-.697-.992-.314-.252-.714-.378-1.2-.378-.487 0-.887.126-1.2.378a2.234 2.234 0 0 0-.698.992c-.15.41-.226.851-.226 1.325s.075.915.226 1.32c.15.407.383.735.697.984.314.25.714.374 1.2.374Zm7.554.979c-.59 0-1.112-.15-1.565-.448-.452-.302-.806-.726-1.062-1.274-.255-.551-.383-1.202-.383-1.953 0-.745.128-1.391.383-1.939.256-.548.611-.97 1.067-1.27.455-.298.981-.447 1.579-.447.461 0 .826.077 1.094.23.27.151.477.324.618.518.145.19.257.347.337.47h.093v-3.49h1.09V19.5h-1.053v-1.09h-.13c-.08.13-.194.293-.341.49a2.03 2.03 0 0 1-.633.522c-.274.15-.638.226-1.094.226Zm.148-.979c.437 0 .806-.114 1.108-.342.301-.23.53-.549.688-.955.157-.41.235-.882.235-1.418 0-.529-.077-.992-.23-1.389-.155-.4-.382-.711-.684-.932-.302-.225-.674-.337-1.117-.337-.462 0-.846.118-1.154.355a2.129 2.129 0 0 0-.688.956 3.8 3.8 0 0 0-.226 1.348c0 .504.077.963.23 1.375.157.41.388.736.693.979.308.24.69.36 1.145.36Zm8.13.979c-.64 0-1.202-.153-1.686-.457a3.105 3.105 0 0 1-1.126-1.28c-.268-.547-.402-1.187-.402-1.92 0-.738.134-1.383.402-1.934a3.1 3.1 0 0 1 1.126-1.283c.484-.305 1.045-.457 1.686-.457.64 0 1.2.152 1.68.457.483.305.859.732 1.126 1.283.271.551.406 1.196.406 1.934 0 .733-.135 1.373-.406 1.92a3.062 3.062 0 0 1-1.126 1.28c-.48.304-1.04.457-1.68.457Zm0-.979c.486 0 .886-.125 1.2-.374.314-.25.546-.577.697-.983.15-.407.226-.847.226-1.32 0-.475-.075-.916-.226-1.326-.151-.409-.383-.74-.697-.992-.314-.252-.714-.378-1.2-.378-.487 0-.887.126-1.2.378a2.233 2.233 0 0 0-.698.992c-.15.41-.226.851-.226 1.325s.075.915.226 1.32c.15.407.383.735.697.984.314.25.714.374 1.2.374Zm9.898-4.672-.978.277a1.819 1.819 0 0 0-.273-.475 1.321 1.321 0 0 0-.48-.388c-.203-.102-.463-.152-.78-.152-.434 0-.796.1-1.085.3-.286.197-.43.447-.43.752 0 .27.1.485.296.642.197.157.505.288.924.392l1.052.259c.634.154 1.107.389 1.417.706.311.314.467.719.467 1.214a1.8 1.8 0 0 1-.351 1.09c-.231.32-.554.572-.97.757-.415.184-.898.277-1.45.277-.722 0-1.321-.157-1.795-.471-.474-.314-.774-.773-.9-1.376l1.034-.258c.098.381.285.668.558.858.277.191.639.287 1.085.287.508 0 .911-.108 1.21-.324.301-.218.452-.48.452-.785a.825.825 0 0 0-.258-.618c-.173-.17-.437-.295-.794-.379l-1.182-.277c-.65-.154-1.127-.392-1.431-.715-.302-.326-.453-.734-.453-1.223 0-.4.113-.755.337-1.062.228-.308.537-.55.928-.725.394-.175.84-.263 1.339-.263.702 0 1.253.154 1.653.461.403.308.69.714.858 1.22Zm5.426 8.162v-9.75h1.052v1.127h.13c.08-.124.19-.28.332-.471.145-.194.35-.367.619-.517.27-.154.637-.231 1.098-.231.597 0 1.124.149 1.58.448.455.298.81.721 1.066 1.27.255.547.383 1.193.383 1.938 0 .751-.128 1.402-.383 1.953-.256.548-.61.972-1.062 1.274-.453.299-.974.448-1.565.448-.456 0-.82-.076-1.094-.226a2.03 2.03 0 0 1-.633-.522 6.986 6.986 0 0 1-.341-.49h-.093v3.75h-1.09Zm1.07-6.204c0 .535.08 1.007.236 1.417.157.406.387.725.688.955.302.228.671.342 1.108.342.456 0 .836-.12 1.14-.36.308-.243.539-.57.693-.979.157-.412.235-.87.235-1.375a3.73 3.73 0 0 0-.23-1.348 2.083 2.083 0 0 0-.688-.956c-.305-.237-.688-.355-1.15-.355-.443 0-.815.112-1.117.337-.302.221-.53.532-.683.932-.154.397-.231.86-.231 1.39Zm9.825 3.693c-.683 0-1.273-.151-1.768-.453a3.036 3.036 0 0 1-1.14-1.274c-.265-.548-.398-1.185-.398-1.911s.133-1.367.397-1.92c.268-.558.64-.992 1.118-1.302.48-.314 1.04-.471 1.68-.471.37 0 .734.061 1.094.184.36.123.688.324.983.6.296.274.531.638.707 1.09.175.452.263 1.01.263 1.671v.462h-5.466v-.942h4.358c0-.4-.08-.757-.24-1.07a1.809 1.809 0 0 0-.674-.744 1.887 1.887 0 0 0-1.025-.272c-.434 0-.81.107-1.126.323-.314.212-.556.489-.725.83a2.44 2.44 0 0 0-.254 1.1v.627c0 .536.092.99.277 1.362.188.37.448.65.78.845.332.19.719.286 1.159.286.286 0 .544-.04.775-.12a1.66 1.66 0 0 0 .605-.37c.17-.165.3-.372.393-.618l1.052.296c-.11.357-.297.67-.559.941a2.722 2.722 0 0 1-.969.628 3.594 3.594 0 0 1-1.297.222Zm5.683-9.602V19.5h-1.09v-9.454h1.09Zm4.876 9.602c-.64 0-1.202-.153-1.685-.457a3.108 3.108 0 0 1-1.127-1.28c-.267-.547-.401-1.187-.401-1.92 0-.738.134-1.383.401-1.934.271-.55.647-.979 1.127-1.283.483-.305 1.045-.457 1.685-.457.64 0 1.2.152 1.68.457.483.305.859.732 1.127 1.283.27.551.406 1.196.406 1.934 0 .733-.136 1.373-.406 1.92a3.066 3.066 0 0 1-1.127 1.28c-.48.304-1.04.457-1.68.457Zm0-.979c.486 0 .886-.125 1.2-.374.314-.25.546-.577.697-.983a3.76 3.76 0 0 0 .226-1.32c0-.475-.075-.916-.226-1.326a2.234 2.234 0 0 0-.697-.992c-.314-.252-.714-.378-1.2-.378s-.887.126-1.2.378a2.236 2.236 0 0 0-.698.992c-.15.41-.226.851-.226 1.325s.076.915.226 1.32c.151.407.384.735.698.984.313.25.714.374 1.2.374ZM40.597 34.5V24.318h4.207c.762 0 1.42.138 1.973.413a2.97 2.97 0 0 1 1.288 1.173c.302.507.452 1.109.452 1.805 0 .706-.154 1.306-.462 1.8-.308.49-.746.865-1.312 1.123-.567.255-1.238.383-2.014.383h-2.66v-1.939h2.203c.37 0 .68-.048.93-.144.251-.1.442-.249.571-.448.13-.202.194-.46.194-.775s-.065-.575-.194-.78a1.168 1.168 0 0 0-.572-.468c-.252-.106-.561-.16-.93-.16H43.06V34.5h-2.461Zm5.733-4.653 2.535 4.653h-2.684l-2.486-4.653h2.635Zm3.537 4.653v-7.636h2.431V34.5h-2.43Zm1.218-8.526c-.341 0-.635-.113-.88-.338a1.088 1.088 0 0 1-.368-.826c0-.318.123-.59.368-.815.245-.229.539-.343.88-.343.345 0 .638.114.88.343.245.225.368.497.368.815 0 .322-.122.597-.368.826a1.245 1.245 0 0 1-.88.338Zm6.325 8.67c-.802 0-1.491-.164-2.068-.492a3.396 3.396 0 0 1-1.327-1.382c-.309-.593-.463-1.281-.463-2.063 0-.786.154-1.474.463-2.064a3.355 3.355 0 0 1 1.327-1.382c.577-.331 1.266-.497 2.068-.497s1.49.166 2.064.497c.576.329 1.019.79 1.327 1.383.311.59.467 1.277.467 2.063 0 .782-.156 1.47-.467 2.063-.308.59-.75 1.05-1.327 1.382-.574.328-1.262.492-2.064.492Zm.015-1.834c.292 0 .539-.09.741-.269.202-.179.356-.427.462-.745.11-.319.164-.687.164-1.104 0-.425-.054-.796-.164-1.114-.106-.318-.26-.567-.462-.746a1.078 1.078 0 0 0-.74-.268c-.302 0-.558.09-.766.268-.206.18-.363.428-.473.746-.106.318-.159.69-.159 1.114 0 .417.053.785.16 1.104.109.318.266.566.472.745.209.18.464.269.765.269Zm14.778-5.166a1.786 1.786 0 0 0-.248-.552c-.11-.162-.244-.3-.403-.412a1.727 1.727 0 0 0-.547-.254 2.42 2.42 0 0 0-.676-.09c-.494 0-.921.12-1.283.359-.358.238-.634.586-.83 1.044-.195.454-.293 1.006-.293 1.655 0 .653.094 1.21.283 1.67.19.461.462.813.82 1.055.358.242.793.362 1.303.362.45 0 .832-.072 1.144-.218.314-.15.553-.36.715-.632.163-.271.244-.591.244-.96l.457.056h-2.475v-1.795h4.39v1.347c0 .912-.194 1.692-.582 2.342a3.869 3.869 0 0 1-1.591 1.496c-.673.348-1.447.522-2.322.522-.971 0-1.824-.21-2.56-.631a4.375 4.375 0 0 1-1.72-1.8c-.411-.782-.617-1.71-.617-2.784 0-.835.124-1.576.373-2.222a4.72 4.72 0 0 1 1.04-1.65c.447-.452.964-.793 1.55-1.025a5.157 5.157 0 0 1 1.904-.348c.59 0 1.139.085 1.646.254.51.169.961.407 1.352.715.395.309.714.675.96 1.1a3.6 3.6 0 0 1 .457 1.396h-2.49Zm4.05 6.856v-7.636h2.362v1.392h.08c.14-.504.366-.879.681-1.124a1.722 1.722 0 0 1 1.099-.373c.113 0 .229.008.348.025.12.013.23.035.333.065v2.113a2.331 2.331 0 0 0-.458-.095 4.053 4.053 0 0 0-.497-.035c-.288 0-.548.065-.78.194-.229.126-.41.303-.542.532-.13.226-.194.49-.194.796V34.5h-2.431Zm7.76.13a3.26 3.26 0 0 1-1.299-.244 2.021 2.021 0 0 1-.89-.746c-.215-.335-.323-.754-.323-1.258 0-.424.075-.782.224-1.074.15-.291.355-.528.617-.71.261-.183.563-.32.904-.413.342-.096.706-.161 1.094-.194.434-.04.784-.081 1.05-.125.264-.046.457-.11.576-.193a.418.418 0 0 0 .184-.363v-.025c0-.255-.088-.453-.264-.592-.175-.139-.412-.209-.71-.209-.322 0-.58.07-.776.21a.92.92 0 0 0-.373.576l-2.242-.08c.066-.464.237-.878.512-1.243.278-.367.66-.656 1.143-.865.488-.212 1.073-.318 1.755-.318.488 0 .937.058 1.348.174.41.113.769.279 1.073.497.305.216.54.481.707.796.169.315.253.674.253 1.079v5.19h-2.287v-1.064h-.06c-.135.259-.31.477-.522.656a2.08 2.08 0 0 1-.74.403c-.282.09-.6.134-.955.134Zm.75-1.592c.262 0 .497-.053.706-.159.212-.106.38-.252.507-.437.126-.19.189-.408.189-.657v-.725c-.07.036-.154.07-.254.1a5.73 5.73 0 0 1-.676.154c-.123.02-.24.037-.353.054a2.2 2.2 0 0 0-.587.169.927.927 0 0 0-.367.298.73.73 0 0 0-.125.428c0 .252.09.444.269.577.182.132.412.198.69.198Zm7.73-2.893V34.5h-2.43v-7.636h2.311v1.402h.085c.169-.468.457-.834.865-1.1.408-.268.893-.402 1.457-.402.536 0 1.002.121 1.397.363.397.239.706.574.924 1.004.222.428.332.928.328 1.502V34.5H95v-4.39c.003-.424-.105-.756-.324-.994-.215-.239-.515-.358-.9-.358-.255 0-.48.056-.676.169-.192.11-.341.267-.447.472a1.698 1.698 0 0 0-.16.746Zm9.232 4.464a2.816 2.816 0 0 1-1.537-.437c-.46-.292-.828-.73-1.103-1.313s-.413-1.307-.413-2.172c0-.898.143-1.638.428-2.218.285-.58.657-1.009 1.118-1.287a2.86 2.86 0 0 1 1.497-.418c.401 0 .744.07 1.029.209.285.136.52.312.706.527.185.215.326.44.422.671h.05v-3.853h2.431V34.5h-2.406v-1.238h-.075a2.368 2.368 0 0 1-.437.661 2.109 2.109 0 0 1-.711.497 2.434 2.434 0 0 1-.999.19Zm.845-1.894c.295 0 .547-.083.755-.248.209-.17.37-.406.483-.711.112-.305.169-.663.169-1.074 0-.418-.057-.777-.169-1.079-.11-.302-.27-.534-.483-.696a1.19 1.19 0 0 0-.755-.244c-.302 0-.557.083-.766.249-.209.166-.368.4-.477.7a3.228 3.228 0 0 0-.159 1.07c0 .41.054.769.164 1.074.109.305.267.542.472.71.209.166.464.25.766.25Zm8.89 1.93c-.799 0-1.488-.158-2.068-.473a3.26 3.26 0 0 1-1.332-1.357c-.309-.59-.463-1.291-.463-2.103 0-.79.156-1.479.468-2.069a3.368 3.368 0 0 1 1.317-1.382c.567-.331 1.235-.497 2.004-.497.543 0 1.04.085 1.491.254a3.2 3.2 0 0 1 1.168.75c.329.332.584.741.766 1.228.182.484.274 1.04.274 1.666v.607h-6.638v-1.412h4.375a1.369 1.369 0 0 0-.183-.691 1.255 1.255 0 0 0-.493-.473 1.419 1.419 0 0 0-.711-.174c-.271 0-.515.062-.73.184-.216.12-.387.284-.513.492-.125.206-.192.44-.198.701v1.437c0 .312.061.585.184.82.122.232.296.413.522.542.225.13.493.194.805.194.215 0 .411-.03.587-.09.175-.059.326-.147.452-.263.126-.116.22-.258.283-.427l2.233.064c-.093.5-.297.937-.612 1.308-.311.368-.721.654-1.228.86-.507.202-1.094.303-1.76.303Zm10.663-.036a2.815 2.815 0 0 1-1.536-.437c-.461-.292-.829-.73-1.104-1.313-.275-.583-.412-1.307-.412-2.172 0-.898.142-1.638.427-2.218.285-.58.658-1.009 1.119-1.287a2.859 2.859 0 0 1 1.496-.418c.401 0 .744.07 1.029.209.285.136.521.312.706.527.186.215.327.44.423.671h.05v-3.853h2.431V34.5h-2.407v-1.238h-.074a2.394 2.394 0 0 1-.438.661 2.109 2.109 0 0 1-.711.497 2.428 2.428 0 0 1-.999.19Zm.845-1.894c.295 0 .547-.083.756-.248.209-.17.369-.406.482-.711.113-.305.169-.663.169-1.074 0-.418-.056-.777-.169-1.079a1.485 1.485 0 0 0-.482-.696 1.195 1.195 0 0 0-.756-.244c-.301 0-.557.083-.765.249-.209.166-.368.4-.478.7a3.228 3.228 0 0 0-.159 1.07c0 .41.055.769.164 1.074.11.305.267.542.473.71.208.166.464.25.765.25Zm8.886 1.93c-.802 0-1.492-.165-2.068-.493a3.397 3.397 0 0 1-1.328-1.382c-.308-.593-.462-1.281-.462-2.063 0-.786.154-1.474.462-2.064a3.356 3.356 0 0 1 1.328-1.382c.576-.331 1.266-.497 2.068-.497s1.49.166 2.063.497a3.31 3.31 0 0 1 1.327 1.383c.312.59.468 1.277.468 2.063 0 .782-.156 1.47-.468 2.063a3.35 3.35 0 0 1-1.327 1.382c-.573.328-1.261.492-2.063.492Zm.015-1.835c.291 0 .538-.09.74-.269.203-.179.357-.427.463-.745.109-.319.164-.687.164-1.104 0-.425-.055-.796-.164-1.114-.106-.318-.26-.567-.463-.746a1.077 1.077 0 0 0-.74-.268c-.302 0-.557.09-.766.268-.205.18-.363.428-.472.746-.106.318-.159.69-.159 1.114 0 .417.053.785.159 1.104.109.318.267.566.472.745.209.18.464.269.766.269Zm13.599-5.44c-.033-.364-.18-.647-.442-.85-.259-.205-.628-.308-1.109-.308a2.2 2.2 0 0 0-.795.125 1.036 1.036 0 0 0-.477.343.827.827 0 0 0-.165.492.74.74 0 0 0 .09.403c.07.116.169.218.298.308.133.086.292.162.478.229.185.066.394.124.626.174l.875.198c.504.11.948.256 1.332.438.388.182.713.4.975.651.265.252.465.542.601.87.136.328.206.696.209 1.104-.003.643-.166 1.195-.487 1.655-.322.461-.784.814-1.387 1.06-.6.245-1.324.367-2.173.367-.852 0-1.594-.127-2.227-.383-.633-.255-1.125-.643-1.477-1.163-.351-.52-.532-1.178-.541-1.974h2.356c.02.328.108.602.264.82.155.22.369.385.641.498.275.112.593.169.954.169.332 0 .614-.045.846-.134.235-.09.416-.214.542-.373a.884.884 0 0 0 .193-.547.752.752 0 0 0-.179-.492c-.116-.14-.295-.259-.536-.358a5.53 5.53 0 0 0-.915-.284l-1.064-.248c-.882-.202-1.576-.529-2.083-.98-.507-.454-.759-1.067-.756-1.84-.003-.629.166-1.18.507-1.655.342-.474.814-.843 1.417-1.108.603-.265 1.291-.398 2.063-.398.789 0 1.473.134 2.054.403.583.265 1.035.638 1.357 1.118.321.48.485 1.038.492 1.67h-2.357Zm8.666 3.834v-4.34h2.426V34.5h-2.317v-1.422h-.079a2.224 2.224 0 0 1-.865 1.114c-.405.272-.894.407-1.467.407-.52 0-.978-.119-1.372-.357a2.438 2.438 0 0 1-.92-1c-.219-.43-.33-.934-.333-1.511v-4.867h2.431v4.39c.003.414.113.74.328.979.216.239.509.358.88.358.242 0 .459-.053.652-.16a1.18 1.18 0 0 0 .462-.471c.116-.21.174-.461.174-.756Zm6.405-6.886V34.5h-2.432V24.318h2.432Z" fill="#2E4049"/><defs><clipPath id="a"><path fill="#fff" transform="translate(.51)" d="M0 0h34v38H0z"/></clipPath></defs></svg>